<svg width="938px" height="368px"
 viewBox="0.00 0.00 938.01 368.00" xmlns="http://www.w3.org/2000/svg" xmlns:xlink="http://www.w3.org/1999/xlink">
<g id="graph0" class="graph" transform="scale(1.0 1.0) rotate(0.0) translate(4.0 364.0)">
<title>Classes</title>
<polygon fill="white" stroke="transparent" points="-4,4 -4,-364 934.01,-364 934.01,4 -4,4"/>
<!-- ProxyQueue -->
<g id="node1" class="node">
<title>ProxyQueue</title>
<polygon fill="none" stroke="black" points="910.46,-90 801.57,-90 801.57,-54 910.46,-54 910.46,-90"/>
<text text-anchor="middle" x="856.02" y="-67.8" font-family="Consolas" font-size="14.00">ProxyQueue</text>
</g>
<!-- ProxyList -->
<g id="node2" class="node">
<title>ProxyList</title>
<polygon fill="none" stroke="black" points="917.66,-198 794.37,-198 794.37,-162 917.66,-162 917.66,-198"/>
<text text-anchor="middle" x="856.02" y="-175.8" font-family="Consolas" font-size="14.00">ProxyList</text>
</g>
<!-- ProxySet -->
<g id="node3" class="node">
<title>ProxySet</title>
<polygon fill="none" stroke="black" points="906.46,-306 805.57,-306 805.57,-270 906.46,-270 906.46,-306"/>
<text text-anchor="middle" x="856.02" y="-283.8" font-family="Consolas" font-size="14.00">ProxySet</text>
</g>
<!-- LinkedSeqSet -->
<g id="node4" class="node">
<title>LinkedSeqSet</title>
<polygon fill="none" stroke="black" points="923.9,-360 788.14,-360 788.14,-324 923.9,-324 923.9,-360"/>
<text text-anchor="middle" x="856.02" y="-337.8" font-family="Consolas" font-size="14.00">LinkedSeqSet</text>
</g>
<!-- LinkedHashSet -->
<g id="node5" class="node">
<title>LinkedHashSet</title>
<polygon fill="none" stroke="black" points="706.57,-360 558.62,-360 558.62,-324 706.57,-324 706.57,-360"/>
<text text-anchor="middle" x="632.6" y="-337.8" font-family="Consolas" font-size="14.00">LinkedHashSet</text>
</g>
<!-- LinkedHashSet&#45;&gt;LinkedSeqSet -->
<g id="edge14" class="edge link&#45;class">
<title>LinkedHashSet&#45;&gt;LinkedSeqSet</title>
<path fill="none" stroke="black" d="M706.71,-342C729.53,-342 754.78,-342 777.87,-342"/>
<polygon fill="black" stroke="black" points="777.96,-345.5 787.96,-342 777.96,-338.5 777.96,-345.5"/>
</g>
<!-- ArraySeq -->
<g id="node6" class="node">
<title>ArraySeq</title>
<polygon fill="none" stroke="black" points="905.78,-252 806.25,-252 806.25,-216 905.78,-216 905.78,-252"/>
<text text-anchor="middle" x="856.02" y="-229.8" font-family="Consolas" font-size="14.00">ArraySeq</text>
</g>
<!-- ArrayList -->
<g id="node7" class="node">
<title>ArrayList</title>
<polygon fill="none" stroke="black" points="697.46,-252 567.73,-252 567.73,-216 697.46,-216 697.46,-252"/>
<text text-anchor="middle" x="632.6" y="-229.8" font-family="Consolas" font-size="14.00">ArrayList</text>
</g>
<!-- ArrayList&#45;&gt;ArraySeq -->
<g id="edge15" class="edge link&#45;class">
<title>ArrayList&#45;&gt;ArraySeq</title>
<path fill="none" stroke="black" d="M697.64,-234C728.74,-234 765.85,-234 796.22,-234"/>
<polygon fill="black" stroke="black" points="796.24,-237.5 806.24,-234 796.24,-230.5 796.24,-237.5"/>
</g>
<!-- LinkedSeq -->
<g id="node8" class="node">
<title>LinkedSeq</title>
<polygon fill="none" stroke="black" points="907.5,-144 804.53,-144 804.53,-108 907.5,-108 907.5,-144"/>
<text text-anchor="middle" x="856.02" y="-121.8" font-family="Consolas" font-size="14.00">LinkedSeq</text>
</g>
<!-- LinkedList -->
<g id="node9" class="node">
<title>LinkedList</title>
<polygon fill="none" stroke="black" points="699.18,-144 566.01,-144 566.01,-108 699.18,-108 699.18,-144"/>
<text text-anchor="middle" x="632.6" y="-121.8" font-family="Consolas" font-size="14.00">LinkedList</text>
</g>
<!-- LinkedList&#45;&gt;LinkedSeq -->
<g id="edge19" class="edge link&#45;class">
<title>LinkedList&#45;&gt;LinkedSeq</title>
<path fill="none" stroke="black" d="M699.43,-126C729.42,-126 764.7,-126 794.08,-126"/>
<polygon fill="black" stroke="black" points="794.2,-129.5 804.2,-126 794.2,-122.5 794.2,-129.5"/>
</g>
<!-- ConcurrentSeq -->
<g id="node10" class="node">
<title>ConcurrentSeq</title>
<polygon fill="none" stroke="black" points="929.99,-36 782.04,-36 782.04,0 929.99,0 929.99,-36"/>
<text text-anchor="middle" x="856.02" y="-13.8" font-family="Consolas" font-size="14.00">ConcurrentSeq</text>
</g>
<!-- ConcurrentLinkedQueue -->
<g id="node11" class="node">
<title>ConcurrentLinkedQueue</title>
<polygon fill="none" stroke="black" points="745.96,-36 519.23,-36 519.23,0 745.96,0 745.96,-36"/>
<text text-anchor="middle" x="632.6" y="-13.8" font-family="Consolas" font-size="14.00">ConcurrentLinkedQueue</text>
</g>
<!-- ConcurrentLinkedQueue&#45;&gt;ConcurrentSeq -->
<g id="edge21" class="edge link&#45;class">
<title>ConcurrentLinkedQueue&#45;&gt;ConcurrentSeq</title>
<path fill="none" stroke="black" d="M746.25,-18C754.83,-18 763.4,-18 771.75,-18"/>
<polygon fill="black" stroke="black" points="771.8,-21.5 781.8,-18 771.8,-14.5 771.8,-21.5"/>
</g>
<!-- SeqQueue -->
<g id="node12" class="node">
<title>SeqQueue</title>
<ellipse fill="none" stroke="black" cx="632.6" cy="-72" rx="55.21" ry="18"/>
<text text-anchor="middle" x="632.6" y="-67.8" font-family="Consolas" font-size="14.00">SeqQueue</text>
</g>
<!-- SeqQueue&#45;&gt;ProxyQueue -->
<g id="edge3" class="edge link&#45;class">
<title>SeqQueue&#45;&gt;ProxyQueue</title>
<path fill="none" stroke="black" d="M687.76,-72C719.07,-72 758.62,-72 791.41,-72"/>
<polygon fill="black" stroke="black" points="791.79,-75.5 801.79,-72 791.79,-68.5 791.79,-75.5"/>
</g>
<!-- SeqQueue&#45;&gt;LinkedSeq -->
<g id="edge2" class="edge link&#45;class">
<title>SeqQueue&#45;&gt;LinkedSeq</title>
<path fill="none" stroke="black" d="M677.67,-82.51C698.42,-87.47 723.5,-93.51 746.03,-99 761.64,-102.81 778.5,-106.96 794.19,-110.85"/>
<polygon fill="black" stroke="black" points="793.75,-114.35 804.3,-113.36 795.43,-107.55 793.75,-114.35"/>
</g>
<!-- SeqQueue&#45;&gt;ConcurrentSeq -->
<g id="edge1" class="edge link&#45;class">
<title>SeqQueue&#45;&gt;ConcurrentSeq</title>
<path fill="none" stroke="black" d="M677.67,-61.49C698.42,-56.53 723.5,-50.49 746.03,-45 754.72,-42.88 763.8,-40.65 772.85,-38.42"/>
<polygon fill="black" stroke="black" points="773.76,-41.8 782.63,-36.01 772.08,-35.01 773.76,-41.8"/>
</g>
<!-- SeqList -->
<g id="node13" class="node">
<title>SeqList</title>
<ellipse fill="none" stroke="black" cx="632.6" cy="-180" rx="65.49" ry="18"/>
<text text-anchor="middle" x="632.6" y="-175.8" font-family="Consolas" font-size="14.00">SeqList</text>
</g>
<!-- SeqList&#45;&gt;ProxyList -->
<g id="edge6" class="edge link&#45;class">
<title>SeqList&#45;&gt;ProxyList</title>
<path fill="none" stroke="black" d="M697.94,-180C725,-180 756.58,-180 784.3,-180"/>
<polygon fill="black" stroke="black" points="784.32,-183.5 794.32,-180 784.32,-176.5 784.32,-183.5"/>
</g>
<!-- SeqList&#45;&gt;ArraySeq -->
<g id="edge5" class="edge link&#45;class">
<title>SeqList&#45;&gt;ArraySeq</title>
<path fill="none" stroke="black" d="M682.59,-191.69C702.31,-196.41 725.26,-201.93 746.03,-207 762.34,-210.98 780.01,-215.34 796.28,-219.37"/>
<polygon fill="black" stroke="black" points="795.66,-222.82 806.21,-221.83 797.34,-216.02 795.66,-222.82"/>
</g>
<!-- SeqList&#45;&gt;LinkedSeq -->
<g id="edge4" class="edge link&#45;class">
<title>SeqList&#45;&gt;LinkedSeq</title>
<path fill="none" stroke="black" d="M682.59,-168.31C702.31,-163.59 725.26,-158.07 746.03,-153 761.64,-149.19 778.5,-145.04 794.19,-141.15"/>
<polygon fill="black" stroke="black" points="795.43,-144.45 804.3,-138.64 793.75,-137.65 795.43,-144.45"/>
</g>
<!-- SizedSeq -->
<g id="node14" class="node">
<title>SizedSeq</title>
<ellipse fill="none" stroke="black" cx="420.48" cy="-207" rx="62.86" ry="18"/>
<text text-anchor="middle" x="420.48" y="-202.8" font-family="Consolas" font-size="14.00">SizedSeq</text>
</g>
<!-- SizedSeq&#45;&gt;SeqQueue -->
<g id="edge9" class="edge link&#45;class">
<title>SizedSeq&#45;&gt;SeqQueue</title>
<path fill="none" stroke="black" d="M463.3,-193.77C470.53,-190.14 477.53,-185.6 483.16,-180 511.1,-152.22 488.88,-124.2 519.16,-99 532.9,-87.57 550.68,-80.82 568.03,-76.88"/>
<polygon fill="black" stroke="black" points="569.03,-80.25 578.16,-74.88 567.67,-73.39 569.03,-80.25"/>
</g>
<!-- SizedSeq&#45;&gt;SeqList -->
<g id="edge8" class="edge link&#45;class">
<title>SizedSeq&#45;&gt;SeqList</title>
<path fill="none" stroke="black" d="M478.07,-199.73C504.26,-196.36 535.61,-192.33 563.13,-188.8"/>
<polygon fill="black" stroke="black" points="563.61,-192.27 573.08,-187.52 562.71,-185.32 563.61,-192.27"/>
</g>
<!-- SeqSet -->
<g id="node15" class="node">
<title>SeqSet</title>
<ellipse fill="none" stroke="black" cx="632.6" cy="-288" rx="49.87" ry="18"/>
<text text-anchor="middle" x="632.6" y="-283.8" font-family="Consolas" font-size="14.00">SeqSet</text>
</g>
<!-- SizedSeq&#45;&gt;SeqSet -->
<g id="edge7" class="edge link&#45;class">
<title>SizedSeq&#45;&gt;SeqSet</title>
<path fill="none" stroke="black" d="M446.68,-223.41C465.88,-235.3 493.33,-250.97 519.16,-261 537.64,-268.18 558.6,-273.83 577.36,-278.07"/>
<polygon fill="black" stroke="black" points="576.73,-281.52 587.24,-280.23 578.22,-274.68 576.73,-281.52"/>
</g>
<!-- SeqSet&#45;&gt;ProxySet -->
<g id="edge13" class="edge link&#45;class">
<title>SeqSet&#45;&gt;ProxySet</title>
<path fill="none" stroke="black" d="M682.74,-288C715.9,-288 759.87,-288 795.09,-288"/>
<polygon fill="black" stroke="black" points="795.25,-291.5 805.25,-288 795.25,-284.5 795.25,-291.5"/>
</g>
<!-- SeqSet&#45;&gt;LinkedSeqSet -->
<g id="edge12" class="edge link&#45;class">
<title>SeqSet&#45;&gt;LinkedSeqSet</title>
<path fill="none" stroke="black" d="M674.73,-297.8C696.02,-302.9 722.43,-309.24 746.03,-315 756.47,-317.55 767.46,-320.25 778.3,-322.92"/>
<polygon fill="black" stroke="black" points="777.63,-326.36 788.17,-325.36 779.31,-319.56 777.63,-326.36"/>
</g>
<!-- Queue -->
<g id="node16" class="node">
<title>Queue</title>
<ellipse fill="none" stroke="black" cx="420.48" cy="-72" rx="38.61" ry="18"/>
<text text-anchor="middle" x="420.48" y="-67.8" font-family="Consolas" font-size="14.00">Queue</text>
</g>
<!-- Queue&#45;&gt;SeqQueue -->
<g id="edge10" class="edge link&#45;class">
<title>Queue&#45;&gt;SeqQueue</title>
<path fill="none" stroke="black" d="M459.05,-72C489.02,-72 531.71,-72 567.12,-72"/>
<polygon fill="black" stroke="black" points="567.38,-75.5 577.38,-72 567.38,-68.5 567.38,-75.5"/>
</g>
<!-- List -->
<g id="node17" class="node">
<title>List</title>
<ellipse fill="none" stroke="black" cx="420.48" cy="-153" rx="48.89" ry="18"/>
<text text-anchor="middle" x="420.48" y="-148.8" font-family="Consolas" font-size="14.00">List</text>
</g>
<!-- List&#45;&gt;SeqList -->
<g id="edge11" class="edge link&#45;class">
<title>List&#45;&gt;SeqList</title>
<path fill="none" stroke="black" d="M466.82,-158.83C494.9,-162.43 531.51,-167.14 563.09,-171.2"/>
<polygon fill="black" stroke="black" points="562.79,-174.69 573.15,-172.49 563.68,-167.74 562.79,-174.69"/>
</g>
<!-- Iterable -->
<g id="node18" class="node">
<title>Iterable</title>
<ellipse fill="none" stroke="black" cx="80.55" cy="-234" rx="80.61" ry="18"/>
<text text-anchor="middle" x="80.55" y="-229.8" font-family="Consolas" font-size="14.00">Iterable</text>
</g>
<!-- ItrSeq -->
<g id="node19" class="node">
<title>ItrSeq</title>
<ellipse fill="none" stroke="black" cx="259.46" cy="-207" rx="62.2" ry="18"/>
<text text-anchor="middle" x="259.46" y="-202.8" font-family="Consolas" font-size="14.00">ItrSeq</text>
</g>
<!-- Iterable&#45;&gt;ItrSeq -->
<g id="edge16" class="edge link&#45;class">
<title>Iterable&#45;&gt;ItrSeq</title>
<path fill="none" stroke="black" d="M147.43,-223.95C162.59,-221.63 178.71,-219.17 193.82,-216.87"/>
<polygon fill="black" stroke="black" points="194.74,-220.27 204.1,-215.3 193.68,-213.35 194.74,-220.27"/>
</g>
<!-- ItrSeq&#45;&gt;SizedSeq -->
<g id="edge17" class="edge link&#45;class">
<title>ItrSeq&#45;&gt;SizedSeq</title>
<path fill="none" stroke="black" d="M321.94,-207C330.27,-207 338.87,-207 347.36,-207"/>
<polygon fill="black" stroke="black" points="347.64,-210.5 357.64,-207 347.64,-203.5 347.64,-210.5"/>
</g>
<!-- Seq -->
<g id="node20" class="node">
<title>Seq</title>
<ellipse fill="none" stroke="black" cx="80.55" cy="-180" rx="27.68" ry="18"/>
<text text-anchor="middle" x="80.55" y="-175.8" font-family="Consolas" font-size="14.00">Seq</text>
</g>
<!-- Seq&#45;&gt;ItrSeq -->
<g id="edge18" class="edge link&#45;class">
<title>Seq&#45;&gt;ItrSeq</title>
<path fill="none" stroke="black" d="M107.66,-183.98C130.37,-187.45 164.23,-192.62 194.12,-197.18"/>
<polygon fill="black" stroke="black" points="193.67,-200.65 204.08,-198.7 194.73,-193.73 193.67,-200.65"/>
</g>
<!-- Set -->
<g id="node21" class="node">
<title>Set</title>
<ellipse fill="none" stroke="black" cx="420.48" cy="-288" rx="33.26" ry="18"/>
<text text-anchor="middle" x="420.48" y="-283.8" font-family="Consolas" font-size="14.00">Set</text>
</g>
<!-- Set&#45;&gt;SeqSet -->
<g id="edge20" class="edge link&#45;class">
<title>Set&#45;&gt;SeqSet</title>
<path fill="none" stroke="black" d="M454.31,-288C485.75,-288 533.92,-288 572.11,-288"/>
<polygon fill="black" stroke="black" points="572.6,-291.5 582.6,-288 572.6,-284.5 572.6,-291.5"/>
</g>
</g>
</svg>
